<svg width="22" height="22" viewBox="0 0 22 22" fill="none" xmlns="http://www.w3.org/2000/svg">
<path fill-rule="evenodd" clip-rule="evenodd" d="M12.7395 1.58749C12.5347 0.731744 11.8799 0 11 0C10.1201 0 9.46532 0.731746 9.26051 1.58749C8.3738 5.29247 5.41014 8.22992 1.61734 9.19505C0.741648 9.41788 0 10.0964 0 11C0 12.343 1.16124 13.2848 2.43869 13.6994C5.57154 14.7161 8.04405 17.1982 9.04757 20.337C9.33582 21.2385 10.0535 22 11 22C11.9058 22 12.5863 21.2577 12.8173 20.3818C13.7896 16.6936 16.6936 13.7896 20.3818 12.8173C21.2577 12.5863 22 11.9058 22 11C22 10.0964 21.2583 9.41788 20.3827 9.19505C16.5899 8.22992 13.6262 5.29247 12.7395 1.58749Z" fill="#9BE5AD"/>
</svg>
