<svg width="238" height="312" viewBox="0 0 238 312" fill="none" xmlns="http://www.w3.org/2000/svg">
<path d="M23.9649 240.26L23.9577 242.82L0 209.903L0.00716867 207.344L23.9649 240.26Z" fill="#898883"/>
<path d="M82.3643 255.702L82.3571 258.261L23.9575 242.819L23.9647 240.26L82.3643 255.702Z" fill="#BAB9B1"/>
<path d="M152.316 165.713L23.8682 240.124L23.9649 240.26L82.3645 255.702L82.5509 255.935L211.085 180.667L152.316 165.713Z" fill="#E8E8E8"/>
<path d="M238 215.203L211.358 180.738L211.085 180.666L82.5508 255.934L109.706 289.761L238 215.203Z" fill="#F4F4F4"/>
<path d="M152.259 165.698L128.302 132.781L0.00732422 207.343L23.8683 240.123L152.317 165.712L152.259 165.698Z" fill="#CECECE"/>
<path d="M238 215.203L237.993 217.762L109.699 292.32L109.706 289.761L238 215.203Z" fill="#C6C5C1"/>
<path d="M109.706 289.761L109.699 292.321L82.3574 258.261L82.3646 255.701L109.706 289.761Z" fill="#919087"/>
<path d="M136.155 117.356C136.406 117.288 136.649 117.209 136.89 117.127C137.047 117.077 137.205 117.027 137.359 116.973C137.624 116.876 137.879 116.765 138.137 116.654C138.262 116.6 138.391 116.55 138.513 116.493C138.89 116.317 139.255 116.127 139.614 115.919L153.091 108.087C152.732 108.295 152.367 108.485 151.99 108.66C151.865 108.718 151.736 108.768 151.61 108.822C151.356 108.933 151.098 109.044 150.836 109.141C150.682 109.198 150.524 109.245 150.367 109.295C150.123 109.374 149.879 109.456 149.632 109.524C149.463 109.571 149.288 109.61 149.116 109.65C148.872 109.707 148.628 109.761 148.377 109.807C148.187 109.843 147.994 109.872 147.8 109.904C147.585 109.936 147.37 109.965 147.155 109.99C146.951 110.012 146.746 110.03 146.542 110.044C146.324 110.058 146.101 110.073 145.875 110.08C145.668 110.087 145.456 110.091 145.245 110.091C145.019 110.091 144.789 110.087 144.56 110.08C144.345 110.073 144.126 110.058 143.911 110.044C143.678 110.026 143.445 110.008 143.209 109.983C142.969 109.958 142.728 109.929 142.488 109.897C142.313 109.872 142.137 109.847 141.961 109.818C141.693 109.775 141.424 109.721 141.151 109.668C140.979 109.632 140.807 109.6 140.635 109.56C140.341 109.496 140.044 109.417 139.746 109.338C139.592 109.298 139.442 109.263 139.287 109.22C138.886 109.105 138.477 108.979 138.069 108.843C138.019 108.825 137.968 108.811 137.915 108.793C137.456 108.635 136.99 108.463 136.52 108.277C136.377 108.219 136.23 108.155 136.087 108.094C135.76 107.958 135.434 107.822 135.105 107.671C134.925 107.589 134.743 107.503 134.563 107.417C134.266 107.273 133.965 107.13 133.664 106.976C133.47 106.879 133.277 106.775 133.083 106.671C132.682 106.459 132.28 106.244 131.875 106.008L118.398 113.84C118.645 113.983 118.896 114.123 119.143 114.259C119.298 114.345 119.452 114.421 119.606 114.503C119.799 114.607 119.993 114.707 120.187 114.808C120.488 114.962 120.789 115.105 121.086 115.249C121.265 115.335 121.448 115.424 121.627 115.503C121.957 115.654 122.283 115.79 122.61 115.926C122.753 115.987 122.9 116.052 123.047 116.109C123.509 116.292 123.968 116.464 124.427 116.622C124.43 116.622 124.438 116.622 124.441 116.625C124.495 116.643 124.545 116.657 124.595 116.675C125.004 116.812 125.409 116.937 125.81 117.052C125.964 117.095 126.115 117.131 126.269 117.17C126.567 117.249 126.864 117.324 127.158 117.392C127.33 117.432 127.502 117.464 127.674 117.5C127.947 117.554 128.215 117.607 128.484 117.65C128.66 117.679 128.836 117.704 129.011 117.729C129.14 117.747 129.269 117.772 129.395 117.787C129.509 117.801 129.617 117.804 129.732 117.815C129.968 117.84 130.201 117.862 130.434 117.876C130.653 117.89 130.868 117.905 131.083 117.912C131.312 117.919 131.542 117.923 131.768 117.923C131.979 117.923 132.19 117.923 132.398 117.912C132.621 117.905 132.843 117.89 133.065 117.876C133.273 117.862 133.477 117.844 133.678 117.822C133.897 117.797 134.112 117.769 134.323 117.736C134.438 117.718 134.556 117.711 134.671 117.69C134.75 117.675 134.821 117.654 134.9 117.64C135.148 117.593 135.395 117.539 135.639 117.482C135.811 117.442 135.986 117.403 136.155 117.356Z" fill="#69A578"/>
<path d="M114.882 111.567C115.072 111.703 115.262 111.84 115.452 111.972C115.774 112.194 116.104 112.41 116.43 112.625C116.591 112.729 116.749 112.84 116.914 112.944C117.405 113.256 117.896 113.553 118.394 113.84L131.871 106.008C131.377 105.721 130.882 105.42 130.391 105.111C130.23 105.008 130.069 104.9 129.907 104.792C129.581 104.581 129.255 104.366 128.929 104.144C128.739 104.011 128.549 103.871 128.359 103.735C128.068 103.527 127.778 103.319 127.488 103.104C127.287 102.954 127.086 102.799 126.889 102.645C126.617 102.437 126.348 102.226 126.079 102.011C125.846 101.824 125.617 101.631 125.387 101.441C125.14 101.233 124.893 101.029 124.645 100.817C124.42 100.62 124.194 100.419 123.968 100.219C123.724 100.004 123.484 99.7849 123.244 99.5626C123.018 99.3547 122.8 99.1433 122.577 98.9318C122.341 98.7059 122.104 98.4801 121.871 98.2471C121.653 98.0285 121.434 97.8098 121.219 97.5876C120.986 97.351 120.756 97.1144 120.527 96.8743C120.312 96.6484 120.101 96.419 119.889 96.1896C119.663 95.9459 119.437 95.6985 119.215 95.4476C119.007 95.2146 118.799 94.978 118.591 94.7379C118.373 94.4834 118.151 94.2289 117.936 93.9708C117.731 93.727 117.531 93.4833 117.33 93.2396C117.115 92.9779 116.903 92.7162 116.695 92.451C116.498 92.2 116.301 91.9491 116.108 91.6982C115.9 91.4294 115.695 91.1569 115.491 90.8845C115.301 90.63 115.111 90.3719 114.921 90.1138C114.72 89.8378 114.523 89.5618 114.326 89.2822C114.14 89.0206 113.957 88.7553 113.778 88.4901C113.584 88.2069 113.394 87.9237 113.204 87.6405C113.025 87.3717 112.849 87.1029 112.674 86.8304C112.487 86.5437 112.305 86.2533 112.122 85.963C111.95 85.6906 111.781 85.4145 111.613 85.1385C111.434 84.8446 111.262 84.5507 111.086 84.2567C110.921 83.9772 110.76 83.6976 110.598 83.418C110.43 83.1205 110.261 82.8194 110.097 82.5218C109.939 82.2387 109.785 81.9555 109.634 81.6687C109.473 81.3676 109.315 81.0629 109.158 80.7583C109.011 80.4715 108.864 80.1847 108.72 79.898C108.566 79.5897 108.419 79.2814 108.269 78.9732C108.129 78.6828 107.993 78.3961 107.856 78.1057C107.724 77.819 107.595 77.5358 107.466 77.249C107.304 76.887 107.143 76.5249 106.989 76.1629C106.867 75.8833 106.752 75.6001 106.634 75.3205C106.484 74.9585 106.337 74.5929 106.193 74.2309C106.082 73.9477 105.971 73.6645 105.867 73.3813C105.727 73.0157 105.595 72.6465 105.462 72.2773C105.362 71.9977 105.261 71.7145 105.165 71.4349C105.036 71.0621 104.914 70.6858 104.795 70.313C104.702 70.0262 104.609 69.7395 104.519 69.4491C104.444 69.2054 104.376 68.9652 104.304 68.7214C104.2 68.3702 104.1 68.0189 104.007 67.6676C103.939 67.4167 103.874 67.1658 103.81 66.9184C103.72 66.5743 103.634 66.2266 103.552 65.8825C103.491 65.6316 103.433 65.3807 103.376 65.1298C103.297 64.7821 103.225 64.4344 103.154 64.0903C103.104 63.8465 103.053 63.5992 103.007 63.3554C102.935 62.9826 102.871 62.6134 102.81 62.2406C102.774 62.0327 102.738 61.8248 102.706 61.6169C102.638 61.1689 102.577 60.7244 102.519 60.2763C102.501 60.1437 102.48 60.0147 102.466 59.882C102.397 59.3085 102.34 58.735 102.294 58.165C102.283 58.0181 102.276 57.8711 102.265 57.7241C102.236 57.3155 102.207 56.9069 102.19 56.4982C102.161 55.8315 102.143 55.1648 102.143 54.5088C102.143 53.9855 102.161 53.4729 102.182 52.9675C102.19 52.8313 102.197 52.6987 102.204 52.5624C102.229 52.1323 102.258 51.7057 102.294 51.2864C102.301 51.2111 102.304 51.1358 102.311 51.0605C102.358 50.5874 102.415 50.1286 102.48 49.6733C102.505 49.5084 102.53 49.3471 102.555 49.1822C102.605 48.8632 102.659 48.5478 102.716 48.2395C102.749 48.0675 102.785 47.899 102.817 47.7305C102.881 47.4294 102.949 47.1319 103.021 46.838C103.061 46.6838 103.096 46.5261 103.136 46.3756C103.225 46.0386 103.322 45.7124 103.423 45.3862C103.451 45.2895 103.48 45.1891 103.512 45.0923C103.648 44.6765 103.792 44.2715 103.942 43.8772C103.982 43.7768 104.025 43.6836 104.064 43.5832C104.182 43.2893 104.304 43.0025 104.433 42.7194C104.494 42.5867 104.559 42.4577 104.62 42.3286C104.738 42.0885 104.856 41.8483 104.982 41.6153C105.05 41.4863 105.122 41.3537 105.193 41.2282C105.326 40.9952 105.458 40.773 105.598 40.5507C105.67 40.4396 105.738 40.3249 105.81 40.2174C105.989 39.9414 106.179 39.6761 106.369 39.418C106.401 39.3714 106.433 39.3248 106.469 39.2782C106.699 38.9771 106.935 38.6868 107.179 38.4072C107.251 38.3247 107.326 38.2495 107.398 38.1706C107.577 37.977 107.756 37.7835 107.942 37.6007C108.036 37.5075 108.132 37.4179 108.229 37.3282C108.405 37.1634 108.58 37.0056 108.76 36.8515C108.86 36.7655 108.964 36.6794 109.064 36.597C109.258 36.4429 109.455 36.2923 109.656 36.1489C109.749 36.0808 109.839 36.0127 109.932 35.9482C110.226 35.7439 110.527 35.5503 110.835 35.3711L97.3579 43.2033C97.0496 43.3825 96.7485 43.5761 96.4546 43.7804C96.3614 43.8449 96.2682 43.9166 96.1786 43.9811C95.9779 44.1245 95.7808 44.275 95.5872 44.4292C95.4833 44.5116 95.3829 44.5976 95.2825 44.6837C95.1033 44.8378 94.9241 44.9955 94.7521 45.1604C94.6553 45.25 94.5585 45.3396 94.4653 45.4328C94.2789 45.6156 94.0997 45.8056 93.9241 45.9992C93.8524 46.078 93.7771 46.1569 93.7019 46.2394C93.4581 46.5189 93.218 46.8093 92.9922 47.1104C92.9563 47.157 92.9241 47.2072 92.8918 47.2538C92.6982 47.5119 92.5119 47.7771 92.3326 48.0531C92.261 48.1607 92.1928 48.2754 92.1212 48.3865C91.9814 48.6087 91.8452 48.8345 91.7161 49.064C91.6444 49.193 91.5728 49.322 91.5011 49.4511C91.3756 49.6841 91.2573 49.9207 91.1391 50.1608C91.0745 50.2899 91.0136 50.4225 90.9527 50.5551C90.8236 50.8347 90.7018 51.1215 90.5835 51.4154C90.5441 51.5158 90.501 51.6125 90.4616 51.7129C90.3075 52.1072 90.1641 52.5123 90.0315 52.9245C89.9992 53.0213 89.9741 53.1216 89.9419 53.2184C89.8415 53.541 89.7447 53.8708 89.6551 54.2042C89.6157 54.3583 89.5763 54.5124 89.5404 54.6701C89.4687 54.9641 89.4006 55.258 89.3361 55.5591C89.3003 55.7276 89.268 55.896 89.2322 56.0681C89.1748 56.3764 89.1211 56.6918 89.0709 57.0108C89.0458 57.1757 89.0171 57.337 88.9956 57.5019C88.9849 57.57 88.9741 57.6345 88.9634 57.7026C88.9096 58.0898 88.8666 58.4876 88.8272 58.8891C88.82 58.9644 88.8164 59.0397 88.8092 59.1149C88.7698 59.5343 88.7411 59.9573 88.7196 60.391C88.7125 60.5272 88.7053 60.6599 88.6981 60.7961C88.6766 61.3015 88.6623 61.8141 88.6587 62.3374C88.6587 62.997 88.6766 63.6601 88.7053 64.3268C88.7053 64.3806 88.7053 64.4308 88.7089 64.4845C88.7268 64.8394 88.7555 65.1943 88.7806 65.5491C88.7913 65.6961 88.7985 65.8431 88.8092 65.99C88.8558 66.56 88.9132 67.1335 88.9849 67.707C88.9992 67.8361 89.0207 67.9687 89.0386 68.1013C89.096 68.5458 89.1569 68.9939 89.225 69.4419C89.2573 69.6498 89.2967 69.8577 89.329 70.0656C89.372 70.3309 89.415 70.5997 89.4652 70.865C89.4831 70.9689 89.5082 71.0765 89.5297 71.1804C89.5763 71.4242 89.6265 71.6679 89.6766 71.9153C89.7483 72.263 89.82 72.6106 89.8989 72.9583C89.9562 73.2057 90.0136 73.4566 90.0745 73.7075C90.1569 74.0552 90.243 74.3993 90.3326 74.747C90.3971 74.9979 90.4616 75.2453 90.5297 75.4962C90.6265 75.8475 90.7268 76.1987 90.8272 76.55C90.8989 76.7938 90.967 77.0339 91.0423 77.2777C91.0709 77.3709 91.096 77.4641 91.1247 77.5573C91.1856 77.7508 91.2537 77.9444 91.3147 78.138C91.4365 78.5144 91.5584 78.8871 91.6839 79.2599C91.7806 79.5431 91.881 79.8227 91.9814 80.1023C92.114 80.4715 92.2466 80.8371 92.3864 81.2063C92.4939 81.4895 92.6015 81.7727 92.7126 82.0559C92.8559 82.4215 93.0029 82.7835 93.1535 83.1455C93.2682 83.4287 93.3864 83.7083 93.5083 83.9915C93.6624 84.3535 93.8237 84.7156 93.985 85.074C94.0603 85.2461 94.132 85.4181 94.2108 85.5866C94.2646 85.7013 94.3219 85.8196 94.3757 85.9343C94.5083 86.2246 94.6481 86.5114 94.7843 86.7982C94.9349 87.11 95.0854 87.4183 95.236 87.7266C95.3793 88.0133 95.5263 88.2965 95.6732 88.5833C95.831 88.888 95.9887 89.1926 96.15 89.4973C96.3005 89.7805 96.4546 90.0637 96.6087 90.3433C96.7736 90.6444 96.9421 90.9455 97.1141 91.243C97.2719 91.5226 97.4367 91.8022 97.598 92.0782C97.7737 92.3757 97.9493 92.6696 98.1249 92.9635C98.2934 93.2396 98.4619 93.512 98.6303 93.7844C98.8131 94.0747 98.9959 94.3651 99.1823 94.6519C99.3579 94.9243 99.5336 95.1931 99.7128 95.462C99.9028 95.7487 100.093 96.0319 100.286 96.3151C100.469 96.5803 100.648 96.842 100.835 97.1037C101.032 97.3833 101.233 97.6628 101.433 97.9389C101.62 98.1969 101.81 98.455 102 98.7095C102.204 98.982 102.412 99.2544 102.616 99.5232C102.81 99.7741 103.007 100.025 103.204 100.276C103.415 100.541 103.627 100.806 103.842 101.068C104.043 101.312 104.243 101.556 104.448 101.799C104.666 102.057 104.885 102.312 105.104 102.566C105.308 102.803 105.516 103.04 105.724 103.273C105.946 103.524 106.172 103.771 106.401 104.015C106.613 104.244 106.824 104.473 107.039 104.699C107.269 104.939 107.498 105.176 107.731 105.413C107.95 105.635 108.165 105.853 108.387 106.072C108.62 106.305 108.856 106.531 109.093 106.757C109.315 106.968 109.537 107.18 109.76 107.388C110 107.61 110.244 107.829 110.484 108.044C110.71 108.244 110.935 108.445 111.161 108.642C111.405 108.854 111.656 109.062 111.903 109.266C112.133 109.456 112.362 109.649 112.595 109.836C112.67 109.897 112.742 109.961 112.817 110.019C113.011 110.173 113.208 110.316 113.401 110.467C113.602 110.621 113.799 110.775 114 110.926C114.29 111.141 114.581 111.349 114.871 111.556L114.882 111.567Z" fill="#69A578"/>
<path d="M163.199 139.455L118.04 191.897C126.961 186.713 134.954 180.071 141.685 172.254L176.672 131.623L163.195 139.455H163.199Z" fill="#69A578"/>
<path d="M81.9021 10.456C82.0383 10.3915 82.1745 10.3341 82.3107 10.2732C82.5222 10.18 82.7301 10.0832 82.9451 9.99718C83.0921 9.93624 83.239 9.87889 83.386 9.81796C83.5939 9.73551 83.8018 9.65307 84.0133 9.57779C84.1674 9.52044 84.3215 9.46667 84.4721 9.4129C84.6835 9.34121 84.8914 9.26952 85.1029 9.20142C85.2606 9.15123 85.4183 9.10105 85.576 9.05445C85.7911 8.98993 86.0061 8.92899 86.2248 8.86806C86.3825 8.82504 86.5402 8.78203 86.6979 8.7426C86.9237 8.68525 87.1496 8.63148 87.3754 8.5813C87.5295 8.54545 87.6836 8.50961 87.8413 8.47735C88.0815 8.42716 88.3288 8.38056 88.5725 8.33755C88.7195 8.31246 88.8629 8.2802 89.0098 8.25869C89.2141 8.22285 89.4184 8.19775 89.6227 8.16549C89.7948 8.1404 89.9668 8.11172 90.1425 8.09022C90.3504 8.06513 90.5618 8.04362 90.7733 8.01853C90.9454 8.00061 91.121 7.9791 91.2966 7.96117C91.5117 7.94325 91.7267 7.92891 91.9454 7.91458C92.121 7.90382 92.2931 7.8859 92.4687 7.87873C92.6909 7.86798 92.9168 7.86081 93.139 7.85364C93.311 7.84647 93.4831 7.8393 93.6551 7.83572C93.8917 7.83213 94.1283 7.83572 94.3648 7.83572C94.5297 7.83572 94.6946 7.83572 94.8595 7.83572C95.1175 7.8393 95.3756 7.85364 95.6337 7.86439C95.7806 7.87156 95.9312 7.87156 96.0781 7.88232C96.4186 7.90024 96.7592 7.92533 97.1033 7.95401C97.1749 7.96117 97.243 7.96117 97.3111 7.96834C97.7269 8.00419 98.1427 8.0472 98.5657 8.10097C98.5764 8.10097 98.5872 8.10097 98.5979 8.10456C99.261 8.18342 99.9277 8.28737 100.602 8.40566C100.695 8.42358 100.788 8.43792 100.885 8.45225C101.533 8.57054 102.189 8.70675 102.849 8.8573C102.971 8.88598 103.096 8.91466 103.218 8.94333C103.878 9.10105 104.541 9.27311 105.211 9.46309C105.319 9.49535 105.43 9.52761 105.537 9.55987C106.236 9.76419 106.939 9.98284 107.648 10.2266C107.673 10.2338 107.699 10.2445 107.724 10.2553C108.423 10.4954 109.125 10.7571 109.835 11.0331C109.932 11.0725 110.028 11.1084 110.125 11.1442C110.817 11.4202 111.516 11.7142 112.218 12.0224C112.351 12.0798 112.48 12.1371 112.613 12.1981C113.312 12.5135 114.014 12.8433 114.72 13.191C114.835 13.2483 114.953 13.3093 115.072 13.3666C115.806 13.7358 116.548 14.1194 117.29 14.528C117.749 14.7789 118.208 15.037 118.67 15.3059L132.147 7.47368C131.692 7.21201 131.24 6.95751 130.789 6.70659C130.782 6.70301 130.775 6.69942 130.767 6.69584C130.022 6.28721 129.283 5.90366 128.545 5.53446C128.43 5.4771 128.312 5.41617 128.197 5.35882C127.491 5.00753 126.789 4.67776 126.09 4.36232C125.957 4.30138 125.828 4.24403 125.696 4.18668C124.993 3.87841 124.294 3.58089 123.602 3.30847C123.505 3.26904 123.409 3.2332 123.312 3.19735C122.602 2.92134 121.9 2.65967 121.201 2.41951C121.183 2.41234 121.161 2.40517 121.143 2.398C121.136 2.398 121.133 2.398 121.125 2.39083C120.416 2.14709 119.713 1.93202 119.014 1.72411C118.907 1.69185 118.796 1.65959 118.688 1.62733C118.018 1.43735 117.355 1.2653 116.695 1.10758C116.573 1.0789 116.448 1.05023 116.326 1.02155C115.667 0.870999 115.011 0.734788 114.362 0.616499C114.269 0.598576 114.172 0.584238 114.079 0.5699C113.405 0.451611 112.735 0.351244 112.075 0.268801C112.068 0.268801 112.061 0.268801 112.054 0.268801H112.046C111.627 0.218617 111.208 0.175603 110.792 0.136173C110.72 0.129004 110.652 0.12542 110.584 0.121835C110.24 0.0931592 109.896 0.0680676 109.559 0.050145C109.408 0.0429759 109.261 0.0393914 109.114 0.0322224C108.856 0.0214688 108.595 0.0107153 108.34 0.00354624C108.175 0.00354624 108.01 0.00354624 107.846 0.00354624C107.609 0.00354624 107.372 -3.82734e-05 107.136 0.00354624C106.964 0.00354624 106.792 0.0142998 106.62 0.0214688C106.397 0.0286379 106.172 0.0358069 105.949 0.0465605C105.774 0.057314 105.602 0.0716521 105.426 0.0824056C105.211 0.0967437 104.992 0.111082 104.777 0.129004C104.602 0.143342 104.43 0.16485 104.254 0.186357C104.043 0.207864 103.831 0.229371 103.623 0.258047C103.448 0.279554 103.275 0.30823 103.103 0.333322C102.899 0.361998 102.695 0.390674 102.491 0.426519C102.462 0.430104 102.43 0.433688 102.401 0.440857C102.286 0.462365 102.172 0.487456 102.053 0.508963C101.809 0.555562 101.566 0.598576 101.322 0.648759C101.164 0.68102 101.01 0.716865 100.856 0.75271C100.63 0.802894 100.404 0.856661 100.179 0.914014C100.021 0.953443 99.8632 0.996458 99.7055 1.03947C99.4868 1.10041 99.2718 1.16135 99.0567 1.22587C98.899 1.27247 98.7413 1.32265 98.5836 1.37283C98.3721 1.44094 98.1606 1.51263 97.9527 1.58432C97.7986 1.63809 97.6445 1.69185 97.4939 1.74921C97.2825 1.82807 97.0746 1.90693 96.8667 1.98937C96.7197 2.04672 96.5728 2.10407 96.4258 2.16501C96.2108 2.25462 95.9993 2.34782 95.7914 2.4446C95.6552 2.50554 95.519 2.56289 95.3864 2.62741C95.1534 2.73495 94.9276 2.84965 94.6982 2.96794C94.5871 3.02171 94.4759 3.07548 94.3684 3.13283C94.0315 3.30847 93.7017 3.49128 93.3755 3.68126L79.8984 11.5134C80.2246 11.3235 80.558 11.1406 80.8913 10.965C81.0024 10.9076 81.1135 10.8539 81.2246 10.8001C81.4505 10.6854 81.6799 10.5707 81.9093 10.4632L81.9021 10.456Z" fill="#69A578"/>
<path d="M118.67 15.305C88.5653 -2.07631 64.0879 11.8782 63.9875 46.4724C63.9517 59.5846 68.1597 73.7398 73.4036 87.6083L118.036 191.893L163.195 139.451C169.07 130.515 172.955 122.651 172.994 109.409C173.091 74.8152 148.768 32.6828 118.667 15.3014L118.67 15.305ZM118.394 113.84C101.921 104.33 88.6083 81.2709 88.6621 62.3375C88.7159 43.4112 102.114 35.7726 118.588 45.2823C135.065 54.7956 148.374 77.8549 148.32 96.7811C148.266 115.715 134.871 123.353 118.394 113.84Z" fill="#9BE5AD"/>
<path d="M178.608 128.588C178.715 128.412 178.823 128.237 178.927 128.061C179.138 127.71 179.35 127.358 179.554 127.007C179.647 126.849 179.74 126.692 179.83 126.534C180.12 126.032 180.403 125.53 180.676 125.025C180.683 125.011 180.69 124.996 180.697 124.986C180.962 124.498 181.217 124.007 181.464 123.516C181.543 123.358 181.622 123.197 181.701 123.039C181.876 122.684 182.049 122.326 182.213 121.964C182.296 121.785 182.378 121.602 182.461 121.423C182.626 121.057 182.783 120.691 182.937 120.322C183.006 120.161 183.077 119.996 183.142 119.835C183.357 119.304 183.565 118.77 183.758 118.229C183.765 118.204 183.773 118.182 183.783 118.157C183.97 117.641 184.145 117.114 184.314 116.583C184.368 116.408 184.421 116.229 184.475 116.053C184.593 115.662 184.708 115.264 184.816 114.863C184.869 114.662 184.923 114.461 184.973 114.257C185.077 113.845 185.178 113.429 185.271 113.006C185.31 112.823 185.353 112.644 185.393 112.461C185.522 111.859 185.64 111.246 185.744 110.622C185.751 110.583 185.755 110.54 185.762 110.5C185.844 109.999 185.923 109.49 185.991 108.97C186.002 108.884 186.009 108.791 186.024 108.705C186.049 108.493 186.074 108.278 186.095 108.067C186.149 107.608 186.196 107.145 186.239 106.676C186.26 106.436 186.278 106.192 186.296 105.948C186.332 105.464 186.36 104.973 186.386 104.471C186.396 104.249 186.411 104.027 186.418 103.801C186.447 103.077 186.464 102.339 186.464 101.582C186.464 100.98 186.457 100.378 186.446 99.772C186.443 99.5785 186.436 99.3813 186.429 99.1842C186.418 98.7684 186.403 98.3526 186.382 97.9368C186.378 97.8436 186.378 97.7504 186.371 97.6536C186.368 97.5676 186.357 97.4815 186.353 97.3955C186.31 96.5531 186.257 95.7036 186.185 94.8541C186.178 94.7609 186.167 94.6641 186.16 94.5709C186.088 93.7285 186.002 92.8826 185.902 92.0367C185.891 91.9578 185.884 91.8789 185.877 91.8001C185.773 90.9362 185.654 90.0723 185.525 89.2049C185.504 89.0507 185.479 88.8966 185.457 88.7425C185.328 87.8965 185.185 87.047 185.027 86.1975C185.016 86.1329 185.006 86.0648 184.995 86.0003C184.98 85.9143 184.959 85.8283 184.941 85.7422C184.773 84.8461 184.593 83.95 184.4 83.0538C184.378 82.9499 184.353 82.8495 184.332 82.7456C184.127 81.8208 183.916 80.8924 183.683 79.9676C183.676 79.9389 183.669 79.9102 183.661 79.8816C183.428 78.9496 183.181 78.0176 182.923 77.0856C182.887 76.9602 182.855 76.8347 182.819 76.7093C182.568 75.8167 182.303 74.9242 182.027 74.0316C182.002 73.9492 181.98 73.8631 181.952 73.7807C181.934 73.7198 181.909 73.6588 181.891 73.5943C181.543 72.4867 181.181 71.3827 180.798 70.2786C180.762 70.1711 180.726 70.0636 180.686 69.956C180.285 68.8054 179.866 67.6583 179.425 66.5113C179.403 66.4575 179.385 66.4038 179.364 66.35C178.905 65.1564 178.425 63.9663 177.927 62.7798C177.909 62.7368 177.887 62.6902 177.869 62.6472C177.385 61.5001 176.883 60.3603 176.364 59.224C176.346 59.1845 176.331 59.1451 176.314 59.1057C176.281 59.034 176.245 58.9623 176.213 58.8906C175.762 57.912 175.299 56.9371 174.822 55.9656C174.772 55.8617 174.722 55.7613 174.672 55.661C174.188 54.6788 173.693 53.7038 173.181 52.7324C173.134 52.6464 173.088 52.5568 173.041 52.4707C172.521 51.4886 171.991 50.51 171.45 49.5422C171.41 49.4705 171.367 49.3952 171.324 49.3235C170.772 48.3414 170.206 47.3628 169.629 46.395C169.597 46.3412 169.564 46.2874 169.532 46.2337C168.941 45.2479 168.338 44.2694 167.722 43.298C167.704 43.2657 167.682 43.237 167.661 43.2048C167.03 42.2154 166.389 41.2297 165.733 40.2583C165.729 40.2511 165.725 40.2475 165.722 40.2404C165.066 39.2654 164.396 38.3011 163.711 37.3441C163.697 37.3226 163.682 37.3011 163.668 37.2796C162.998 36.3404 162.313 35.4156 161.621 34.498C161.589 34.4585 161.56 34.4155 161.528 34.3725C160.847 33.4764 160.155 32.591 159.453 31.7128C159.406 31.6554 159.363 31.5981 159.317 31.5407C158.625 30.6805 157.926 29.8345 157.216 29.0029C157.159 28.9348 157.098 28.8631 157.041 28.795C156.338 27.9741 155.628 27.1676 154.911 26.3719C154.84 26.293 154.772 26.2141 154.7 26.1353C153.99 25.3503 153.27 24.5796 152.542 23.8233C152.46 23.7372 152.381 23.6512 152.299 23.5688C151.574 22.8196 150.843 22.0848 150.108 21.3607C150.019 21.2747 149.933 21.1851 149.843 21.099C149.108 20.3857 148.367 19.6867 147.621 18.9985C147.524 18.9089 147.427 18.8193 147.331 18.7297C146.585 18.0522 145.836 17.3891 145.08 16.7403C144.976 16.6507 144.872 16.561 144.768 16.4714C144.012 15.8298 143.252 15.2025 142.485 14.5896C142.424 14.5394 142.363 14.4892 142.302 14.439C142.252 14.3996 142.198 14.3601 142.148 14.3207C141.431 13.7544 140.71 13.1988 139.983 12.6611C139.861 12.5715 139.739 12.4819 139.621 12.3922C138.89 11.8546 138.155 11.3276 137.413 10.8186C137.302 10.7434 137.191 10.6681 137.083 10.5928C136.323 10.0766 135.56 9.57123 134.793 9.08374C134.717 9.03714 134.642 8.99054 134.567 8.94394C133.76 8.43494 132.947 7.94386 132.129 7.4707L118.652 15.3029C119.47 15.776 120.28 16.2671 121.09 16.7761C121.165 16.8227 121.24 16.8693 121.316 16.9159C122.083 17.4034 122.846 17.9052 123.606 18.425C123.717 18.5003 123.828 18.5755 123.936 18.6508C124.674 19.1598 125.409 19.6832 126.14 20.2208C126.262 20.3104 126.384 20.4001 126.506 20.4897C127.23 21.0273 127.95 21.5829 128.667 22.1493C128.782 22.2389 128.893 22.3285 129.004 22.4181C129.771 23.0311 130.531 23.6548 131.284 24.2964C131.387 24.386 131.491 24.4757 131.595 24.5653C132.352 25.2141 133.104 25.8772 133.846 26.5547C133.943 26.6443 134.04 26.7339 134.137 26.8235C134.882 27.5082 135.624 28.2107 136.359 28.924C136.449 29.0101 136.538 29.0997 136.628 29.1857C137.366 29.9098 138.097 30.6446 138.818 31.3938C138.9 31.4798 138.979 31.5658 139.062 31.6483C139.789 32.4082 140.51 33.1789 141.219 33.9603C141.291 34.0391 141.359 34.118 141.431 34.1969C142.148 34.9926 142.857 35.7992 143.56 36.62C143.621 36.6917 143.678 36.7634 143.739 36.8315C144.449 37.6667 145.148 38.5126 145.84 39.3693C145.886 39.4267 145.929 39.484 145.976 39.5414C146.678 40.416 147.37 41.3014 148.051 42.2011C148.083 42.2441 148.112 42.2835 148.144 42.3266C148.836 43.2442 149.521 44.169 150.191 45.1081C150.205 45.1296 150.22 45.1512 150.234 45.1727C150.915 46.1261 151.585 47.094 152.245 48.069C152.248 48.0761 152.252 48.0797 152.256 48.0869C152.911 49.0583 153.549 50.0404 154.18 51.0298C154.202 51.062 154.223 51.0943 154.241 51.1265C154.858 52.0944 155.46 53.0765 156.048 54.0623C156.08 54.116 156.112 54.1698 156.145 54.22C156.722 55.1914 157.288 56.1664 157.843 57.1521C157.883 57.2238 157.926 57.2955 157.965 57.3672C158.51 58.335 159.037 59.3136 159.557 60.2957C159.603 60.3854 159.65 60.475 159.7 60.561C160.209 61.5288 160.704 62.5074 161.188 63.486C161.238 63.5899 161.288 63.6903 161.338 63.7906C161.815 64.7621 162.277 65.737 162.729 66.7192C162.779 66.8267 162.829 66.9379 162.879 67.0454C163.399 68.1817 163.901 69.3251 164.385 70.4722C164.403 70.5152 164.424 70.5618 164.442 70.6048C164.94 71.7913 165.421 72.9849 165.88 74.1786C165.901 74.2288 165.919 74.2825 165.937 74.3327C166.378 75.4798 166.797 76.6304 167.199 77.7846C167.234 77.8921 167.27 77.9961 167.31 78.1036C167.693 79.2077 168.055 80.3153 168.403 81.4229C168.45 81.5663 168.493 81.7097 168.536 81.853C168.812 82.7456 169.077 83.6381 169.328 84.5307C169.364 84.6561 169.396 84.7816 169.432 84.907C169.69 85.839 169.941 86.771 170.17 87.703C170.177 87.7316 170.184 87.7603 170.192 87.789C170.421 88.7174 170.636 89.6422 170.84 90.567C170.862 90.671 170.887 90.7713 170.908 90.8753C171.102 91.7714 171.281 92.6711 171.45 93.5637C171.478 93.7178 171.507 93.8683 171.536 94.0225C171.69 94.872 171.833 95.7215 171.966 96.5675C171.991 96.7216 172.012 96.8757 172.034 97.0299C172.163 97.8973 172.281 98.7648 172.385 99.6251C172.396 99.7039 172.403 99.7828 172.41 99.8616C172.511 100.711 172.593 101.554 172.668 102.396C172.675 102.489 172.686 102.586 172.693 102.679C172.765 103.529 172.819 104.375 172.862 105.221C172.873 105.4 172.88 105.583 172.891 105.762C172.908 106.178 172.923 106.593 172.934 107.009C172.941 107.206 172.948 107.4 172.951 107.597C172.966 108.203 172.973 108.805 172.969 109.407C172.969 110.167 172.948 110.902 172.923 111.626C172.916 111.855 172.901 112.074 172.891 112.3C172.865 112.798 172.837 113.289 172.801 113.773C172.783 114.017 172.761 114.261 172.74 114.501C172.697 114.97 172.65 115.433 172.597 115.892C172.572 116.103 172.55 116.318 172.521 116.53C172.442 117.139 172.356 117.738 172.26 118.326C172.253 118.365 172.249 118.408 172.242 118.447C172.134 119.075 172.016 119.684 171.891 120.286C171.851 120.469 171.808 120.648 171.769 120.831C171.675 121.25 171.575 121.67 171.471 122.082C171.417 122.286 171.367 122.487 171.313 122.688C171.206 123.089 171.091 123.487 170.973 123.878C170.919 124.054 170.869 124.233 170.812 124.408C170.643 124.939 170.468 125.466 170.281 125.982C170.274 126.007 170.267 126.029 170.256 126.054C170.059 126.595 169.851 127.129 169.64 127.66C169.571 127.824 169.503 127.986 169.435 128.151C169.281 128.52 169.123 128.889 168.959 129.251C168.876 129.43 168.794 129.613 168.711 129.792C168.543 130.154 168.374 130.509 168.199 130.868C168.12 131.025 168.045 131.187 167.962 131.344C167.715 131.836 167.46 132.327 167.195 132.814C167.188 132.828 167.181 132.843 167.174 132.854C166.901 133.359 166.618 133.861 166.328 134.363C166.238 134.52 166.145 134.678 166.052 134.836C165.847 135.187 165.639 135.538 165.424 135.89C165.317 136.065 165.213 136.241 165.102 136.417C164.883 136.771 164.664 137.123 164.439 137.481C164.342 137.635 164.245 137.786 164.148 137.94C163.829 138.442 163.503 138.944 163.17 139.453L176.647 131.62C176.98 131.111 177.306 130.61 177.625 130.108C177.722 129.954 177.819 129.8 177.916 129.649C178.142 129.294 178.36 128.939 178.579 128.588H178.608Z" fill="#69A578"/>
<g filter="url(#filter0_f_957_179940)">
<ellipse cx="119.5" cy="210.5" rx="17.5" ry="8.5" fill="#BCBCBC"/>
</g>
<defs>
<filter id="filter0_f_957_179940" x="98" y="198" width="43" height="25" filterUnits="userSpaceOnUse" color-interpolation-filters="sRGB">
<feFlood flood-opacity="0" result="BackgroundImageFix"/>
<feBlend mode="normal" in="SourceGraphic" in2="BackgroundImageFix" result="shape"/>
<feGaussianBlur stdDeviation="2" result="effect1_foregroundBlur_957_179940"/>
</filter>
</defs>
</svg>
