<svg width="25" height="24" viewBox="0 0 25 24" fill="none" xmlns="http://www.w3.org/2000/svg">
<path fill-rule="evenodd" clip-rule="evenodd" d="M18.4818 5.86761C18.3138 5.69553 18.0854 5.58084 17.8302 5.55725C17.1549 5.49482 16.2496 5.38956 15.5785 5.23106C15.1038 5.11895 14.578 4.87941 14.0923 4.61333C13.4166 4.24311 12.5267 4.64176 12.4004 5.3641H12.3853V5.54036V7.5346V11.9641L13.4497 10.8997V8.75847C13.8646 9.01884 14.357 9.29836 14.8439 9.50543L18.4818 5.86761ZM13.4497 12.1384L12.3853 13.2028V13.6668C12.3087 13.5886 12.2287 13.5138 12.1455 13.4426L6.89295 18.6951C7.57621 19.4934 8.5912 19.9994 9.72436 19.9994C11.7818 19.9994 13.4497 18.3315 13.4497 16.274L13.4497 16.2713V12.1384ZM6.3974 17.952L11.4023 12.9471C10.898 12.6922 10.328 12.5487 9.72436 12.5487C7.66691 12.5487 5.99902 14.2166 5.99902 16.274C5.99902 16.8776 6.14258 17.4477 6.3974 17.952ZM15.7872 9.80083L18.7716 6.81646V9.09538C18.7716 9.66996 18.2889 10.1251 17.7169 10.0702C17.1264 10.0135 16.3899 9.92577 15.7872 9.80083Z" fill="#9E9E9E"/>
<rect x="19.7715" y="3.34961" width="0.875894" height="21.9636" rx="0.437947" transform="rotate(45 19.7715 3.34961)" fill="#9E9E9E"/>
</svg>
