<svg width="32" height="32" viewBox="0 0 32 32" fill="none" xmlns="http://www.w3.org/2000/svg">
<circle cx="16" cy="16" r="16" fill="#D8D8D8" fill-opacity="0.01"/>
<path fill-rule="evenodd" clip-rule="evenodd" d="M8.65916 8.512C8.46782 8.04318 8.499 7.4747 8.89282 7.15641C9.80331 6.42051 10.8297 5.82237 11.9404 5.39367C12.413 5.21125 12.9212 5.4689 13.2314 5.8694C13.8789 6.70529 14.8924 7.24339 16.0316 7.24339C17.1707 7.24339 18.1842 6.70529 18.8317 5.8694C19.142 5.4689 19.6501 5.21125 20.1227 5.39367C21.2332 5.8223 22.2595 6.42031 23.1698 7.15602C23.5637 7.47432 23.5949 8.04286 23.4035 8.51171C23.0042 9.48998 23.0453 10.6359 23.6145 11.6218C24.1839 12.608 25.1562 13.2166 26.2035 13.3596C26.7059 13.4283 27.1834 13.7401 27.2612 14.2412C27.3503 14.8144 27.3965 15.4018 27.3965 16C27.3965 16.5981 27.3503 17.1855 27.2612 17.7587C27.1834 18.2598 26.7059 18.5717 26.2035 18.6403C25.1562 18.7833 24.1839 19.3919 23.6145 20.3782C23.0453 21.3641 23.0042 22.51 23.4035 23.4882C23.5949 23.9571 23.5637 24.5256 23.1698 24.8439C22.2595 25.5797 21.2332 26.1777 20.1227 26.6063C19.6501 26.7887 19.142 26.5311 18.8317 26.1306C18.1842 25.2947 17.1707 24.7566 16.0316 24.7566C14.8924 24.7566 13.8789 25.2947 13.2314 26.1306C12.9212 26.5311 12.413 26.7887 11.9404 26.6063C10.8298 26.1776 9.8034 25.5795 8.89293 24.8437C8.49912 24.5254 8.46792 23.9569 8.65923 23.4881C9.0584 22.5099 9.01729 21.3641 8.44815 20.3783C7.87881 19.3922 6.90667 18.7837 5.85955 18.6405C5.3572 18.5718 4.87977 18.26 4.80193 17.759C4.71285 17.1857 4.66663 16.5982 4.66663 16C4.66663 15.4019 4.71283 14.8145 4.80187 14.2413C4.8797 13.7403 5.35715 13.4284 5.85952 13.3598C6.90665 13.2166 7.87881 12.6081 8.44815 11.6219C9.01733 10.6361 9.05841 9.49025 8.65916 8.512ZM16.0316 20.2851C18.3982 20.2851 20.3167 18.3666 20.3167 16C20.3167 13.6334 18.3982 11.7148 16.0316 11.7148C13.6649 11.7148 11.7464 13.6334 11.7464 16C11.7464 18.3666 13.6649 20.2851 16.0316 20.2851Z" fill="#FDFDFD"/>
</svg>
