<svg width="9" height="12" viewBox="0 0 9 12" fill="none" xmlns="http://www.w3.org/2000/svg">
<path fill-rule="evenodd" clip-rule="evenodd" d="M4.50044 8.88H4.49956V11.9986C3.03395 11.1722 0.847396 8.21158 0.189635 5.71947C0.0846506 5.37465 0.0210047 5.01217 0.00437843 4.63765C0.00266908 4.61118 0.00120845 4.58483 0 4.55859H0.00157397C0.000526832 4.51919 0 4.47965 0 4.44C0 1.98786 2.01452 0 4.49956 0C6.98461 0 8.99913 1.98786 8.99913 4.44C8.99913 4.47965 8.9986 4.51919 8.99756 4.55859H9C8.99814 4.59902 8.99568 4.63972 8.99263 4.68069C8.97361 5.03196 8.91322 5.37238 8.81618 5.69731C8.16558 8.194 5.97039 11.1697 4.50044 11.9986V8.88ZM4.5002 6.24062C5.50765 6.24062 6.32435 5.43474 6.32435 4.44063C6.32435 3.44651 5.50765 2.64062 4.5002 2.64062C3.49275 2.64062 2.67605 3.44651 2.67605 4.44063C2.67605 5.43474 3.49275 6.24062 4.5002 6.24062Z" fill="white"/>
</svg>
