<svg width="24" height="24" viewBox="0 0 24 24" fill="none" xmlns="http://www.w3.org/2000/svg">
<path fill-rule="evenodd" clip-rule="evenodd" d="M11.5724 4.06449L4.0225 11.6144L3.95941 11.6899C3.81219 11.9024 3.83322 12.1962 4.0225 12.3855L11.5724 19.9354L11.6479 19.9985C11.8604 20.1457 12.1542 20.1247 12.3435 19.9354L12.4066 19.8599C12.5538 19.6474 12.5328 19.3535 12.3435 19.1643L5.72435 12.5451H19.5916C19.8927 12.5451 20.1369 12.301 20.1369 11.9999C20.1369 11.6987 19.8927 11.4546 19.5916 11.4546H5.72436L12.3435 4.83562L12.4066 4.7601C12.5538 4.54759 12.5328 4.25377 12.3435 4.06449C12.1306 3.85155 11.7853 3.85155 11.5724 4.06449Z" fill="#404041"/>
</svg>
