<svg width="23" height="18" viewBox="0 0 23 18" fill="none" xmlns="http://www.w3.org/2000/svg">
<path d="M11.5195 10.0918C11.1224 10.0918 10.722 9.88672 10.3184 9.47656L1.77344 1.0293C2.09245 0.710286 2.66536 0.550781 3.49219 0.550781H19.2148C20.1849 0.550781 20.8522 0.723307 21.2168 1.06836L12.7207 9.47656C12.3105 9.88672 11.9102 10.0918 11.5195 10.0918ZM0.962891 15.8047C0.80013 15.5247 0.71875 15.0397 0.71875 14.3496V3.56836C0.71875 2.9043 0.79362 2.43229 0.943359 2.15234L7.86719 8.97852L0.962891 15.8047ZM3.78516 17.377C2.85417 17.377 2.20312 17.2174 1.83203 16.8984L8.85352 9.93555L9.50781 10.5898C10.1589 11.2148 10.8294 11.5273 11.5195 11.5273C12.2031 11.5273 12.8737 11.2148 13.5312 10.5898L14.1758 9.93555L21.2168 16.9082C20.8913 17.2207 20.3216 17.377 19.5078 17.377H3.78516ZM22.0469 15.7949L15.1621 8.97852L22.0664 2.18164C22.2096 2.44857 22.2812 2.91081 22.2812 3.56836V14.3496C22.2812 15.0267 22.2031 15.5085 22.0469 15.7949Z" fill="#191919"/>
</svg>
