<svg width="164" height="190" viewBox="0 0 164 190" fill="none" xmlns="http://www.w3.org/2000/svg">
<g filter="url(#filter0_d_957_316001)">
<path fill-rule="evenodd" clip-rule="evenodd" d="M88.8741 16.4641C88.0885 12.9221 85.2929 10 81.6648 10C78.0367 10 75.241 12.9221 74.4555 16.464C69.7078 37.8706 52.8553 54.7232 31.4487 59.4708C27.9078 60.2562 24.9868 63.0511 24.9868 66.678C24.9868 70.3049 27.9078 73.0998 31.4487 73.8851C52.8553 78.6328 69.7078 95.4853 74.4555 116.892C75.241 120.434 78.0367 123.356 81.6648 123.356C85.2929 123.356 88.0885 120.434 88.8741 116.892C93.6218 95.4853 110.474 78.6328 131.881 73.8851C135.422 73.0998 138.343 70.3049 138.343 66.678C138.343 63.0511 135.422 60.2561 131.881 59.4708C110.474 54.7232 93.6218 37.8706 88.8741 16.4641Z" fill="url(#paint0_linear_957_316001)"/>
</g>
<path fill-rule="evenodd" clip-rule="evenodd" d="M63.4524 27.4967C62.3446 28.0874 61.2396 28.7007 60.1384 29.3364C48.9209 35.8128 39.534 43.799 32.4884 52.334C35.7693 51.4369 38.9161 50.2131 41.8913 48.6998C46.4587 44.1962 51.7541 39.9264 57.6925 36.0812C59.8943 33.4365 61.8282 30.561 63.4524 27.4967ZM97.2844 20.9052C96.7793 19.4874 96.3366 18.0401 95.9595 16.5667C116.406 13.6555 134.123 18.954 141.773 32.2046C146.38 40.185 146.664 49.8853 143.377 59.8894C142.457 58.342 141.248 57.0219 139.879 55.9472C142.012 47.8311 141.339 40.4098 137.894 34.4439C132.966 25.9079 122.621 20.7952 108.737 20.3074C105.093 20.1794 101.254 20.3764 97.2844 20.9052ZM105.468 97.8605C111.829 93.7836 117.462 89.2195 122.263 84.399C125.163 82.9662 128.222 81.8067 131.405 80.9544C124.325 89.6338 114.825 97.7627 103.44 104.336C102.291 105 101.138 105.638 99.9817 106.253C101.53 103.267 103.372 100.457 105.468 97.8605ZM23.7788 77.4243C21.5498 85.658 22.1967 93.1892 25.6836 99.2288C30.6119 107.765 40.9571 112.877 54.8405 113.365C58.5356 113.495 62.4303 113.291 66.4589 112.745C66.9544 114.164 67.3875 115.612 67.7551 117.086C47.2508 120.041 29.4723 114.748 21.8051 101.468C17.1562 93.4161 16.909 83.6131 20.2903 73.5138C21.2106 75.0483 22.4159 76.3577 23.7788 77.4243Z" fill="url(#paint1_linear_957_316001)"/>
<path d="M156.969 157.999H163.393V178.899C163.393 186.291 157.629 189.415 151.777 189.415C147.201 189.415 143.373 187.699 141.349 184.091L146.981 180.835C147.817 182.375 149.093 183.607 151.997 183.607C155.077 183.607 156.969 182.023 156.969 178.899V176.875C155.517 178.679 153.405 179.735 150.545 179.735C144.297 179.735 139.721 174.631 139.721 168.559C139.721 162.487 144.297 157.383 150.545 157.383C153.405 157.383 155.517 158.439 156.969 160.243V157.999ZM151.645 173.663C154.769 173.663 156.969 171.595 156.969 168.559C156.969 165.523 154.769 163.455 151.645 163.455C148.521 163.455 146.321 165.523 146.321 168.559C146.321 171.595 148.521 173.663 151.645 173.663Z" fill="#9BE5AD"/>
<path d="M127.18 157.383C131.624 157.383 135.408 160.551 135.408 166.491V179.999H128.808V167.459C128.808 164.731 127.092 163.455 124.98 163.455C122.56 163.455 120.888 164.863 120.888 167.987V179.999H114.288V157.999H120.888V160.067C122.076 158.439 124.276 157.383 127.18 157.383Z" fill="#9BE5AD"/>
<path d="M101.979 180V158H108.579V180H101.979Z" fill="#9BE5AD"/>
<path d="M88.2269 157.383C93.2869 157.383 96.5869 160.991 96.5869 166.491V179.999H89.9869V167.063C89.9869 164.863 88.9309 163.455 86.8189 163.455C84.6189 163.455 83.3869 164.995 83.3869 167.591V179.999H76.7869V167.063C76.7869 164.863 75.7309 163.455 73.6189 163.455C71.4189 163.455 70.1869 164.995 70.1869 167.591V179.999H63.5869V157.999H70.1869V160.023C71.1989 158.527 73.1349 157.383 76.0829 157.383C78.6789 157.383 80.6149 158.439 81.8469 160.287C83.0789 158.527 85.1029 157.383 88.2269 157.383Z" fill="#9BE5AD"/>
<path d="M47.3138 180.615C40.8458 180.615 35.6538 175.555 35.6538 168.999C35.6538 162.443 40.8458 157.383 47.3138 157.383C53.7818 157.383 58.9738 162.443 58.9738 168.999C58.9738 175.555 53.7818 180.615 47.3138 180.615ZM47.3138 174.191C50.1738 174.191 52.3738 172.123 52.3738 168.999C52.3738 165.875 50.1738 163.807 47.3138 163.807C44.4538 163.807 42.2538 165.875 42.2538 168.999C42.2538 172.123 44.4538 174.191 47.3138 174.191Z" fill="#9BE5AD"/>
<path d="M30.8 149.199V179.999H23.76V162.091L15.796 175.159H15.004L7.04 162.091V179.999H0V149.199H7.04L15.4 162.883L23.76 149.199H30.8Z" fill="#9BE5AD"/>
<path fill-rule="evenodd" clip-rule="evenodd" d="M105.596 147.456C105.541 147.206 105.343 147 105.087 147V147V147C104.831 147 104.634 147.206 104.579 147.456C104.243 148.967 103.054 150.156 101.544 150.491C101.294 150.547 101.087 150.744 101.087 151V151V151C101.087 151.256 101.294 151.453 101.544 151.509C103.054 151.844 104.243 153.033 104.579 154.544C104.634 154.794 104.831 155 105.087 155V155V155C105.343 155 105.541 154.794 105.596 154.544C105.931 153.033 107.121 151.844 108.631 151.509C108.881 151.453 109.087 151.256 109.087 151V151V151C109.087 150.744 108.881 150.547 108.631 150.491C107.121 150.156 105.931 148.967 105.596 147.456Z" fill="#9BE5AD"/>
<defs>
<filter id="filter0_d_957_316001" x="14.9868" y="0" width="133.356" height="133.355" filterUnits="userSpaceOnUse" color-interpolation-filters="sRGB">
<feFlood flood-opacity="0" result="BackgroundImageFix"/>
<feColorMatrix in="SourceAlpha" type="matrix" values="0 0 0 0 0 0 0 0 0 0 0 0 0 0 0 0 0 0 127 0" result="hardAlpha"/>
<feOffset/>
<feGaussianBlur stdDeviation="5"/>
<feComposite in2="hardAlpha" operator="out"/>
<feColorMatrix type="matrix" values="0 0 0 0 0.607843 0 0 0 0 0.898039 0 0 0 0 0.678431 0 0 0 0.5 0"/>
<feBlend mode="normal" in2="BackgroundImageFix" result="effect1_dropShadow_957_316001"/>
<feBlend mode="normal" in="SourceGraphic" in2="effect1_dropShadow_957_316001" result="shape"/>
</filter>
<linearGradient id="paint0_linear_957_316001" x1="123.513" y1="16" x2="33.5703" y2="104.398" gradientUnits="userSpaceOnUse">
<stop stop-color="#9BE5AD"/>
<stop offset="1" stop-color="#A7FBBC"/>
</linearGradient>
<linearGradient id="paint1_linear_957_316001" x1="128.887" y1="21.1947" x2="49.5531" y2="118.633" gradientUnits="userSpaceOnUse">
<stop stop-color="#9BE5AD"/>
<stop offset="1" stop-color="#A7FBBC"/>
</linearGradient>
</defs>
</svg>
