<svg width="160" height="186" viewBox="0 0 160 186" fill="none" xmlns="http://www.w3.org/2000/svg">
<g filter="url(#filter0_b_890_13671)">
<path fill-rule="evenodd" clip-rule="evenodd" d="M96.7458 153.029C96.6808 152.736 96.4494 152.494 96.1491 152.494V152.494V152.494C95.8488 152.494 95.6174 152.736 95.5524 153.029C95.1597 154.8 93.7657 156.194 91.9951 156.586C91.7024 156.651 91.4609 156.882 91.4609 157.182V157.182V157.182C91.4609 157.482 91.7024 157.713 91.9951 157.778C93.7657 158.171 95.1597 159.565 95.5524 161.335C95.6174 161.629 95.8488 161.87 96.1491 161.87V161.87V161.87C96.4494 161.87 96.6808 161.629 96.7458 161.335C97.1386 159.565 98.5325 158.171 100.303 157.778C100.596 157.713 100.837 157.482 100.837 157.182V157.182V157.182C100.837 156.882 100.596 156.651 100.303 156.586C98.5325 156.194 97.1386 154.8 96.7458 153.029Z" fill="#9BE5AD"/>
</g>
<g filter="url(#filter1_b_890_13671)">
<path fill-rule="evenodd" clip-rule="evenodd" d="M59.2405 166.426C59.1754 166.133 58.9441 165.891 58.6437 165.891V165.891V165.891C58.3434 165.891 58.112 166.133 58.047 166.426C57.6543 168.196 56.2604 169.59 54.4897 169.983C54.197 170.048 53.9556 170.279 53.9556 170.579V170.579V170.579C53.9556 170.879 54.197 171.11 54.4897 171.175C56.2604 171.567 57.6543 172.961 58.047 174.732C58.112 175.025 58.3434 175.267 58.6437 175.267V175.267V175.267C58.9441 175.267 59.1754 175.025 59.2405 174.732C59.6332 172.961 61.0271 171.567 62.7977 171.175C63.0905 171.11 63.3319 170.879 63.3319 170.579V170.579V170.579C63.3319 170.279 63.0905 170.048 62.7977 169.983C61.0271 169.59 59.6332 168.196 59.2405 166.426Z" fill="#9BE5AD"/>
</g>
<path fill-rule="evenodd" clip-rule="evenodd" d="M29.9796 176.085V146.105H23.1271L14.9898 159.425L6.85249 146.105H0V176.085H6.85249V158.654L14.6044 171.374H15.3753L23.1271 158.654V176.085H29.9796ZM34.7041 165.378C34.7041 171.759 39.7578 176.685 46.0535 176.685C49.5729 176.685 52.7042 175.146 54.7815 172.673C54.5954 172.594 54.4007 172.531 54.1993 172.486C53.4741 172.325 52.6153 171.678 52.6153 170.582C52.6153 169.486 53.4741 168.839 54.1993 168.678C55.4611 168.397 56.4577 167.401 56.7379 166.139C56.8233 165.755 57.045 165.333 57.3977 165.021C57.2132 158.814 52.2313 154.071 46.0535 154.071C39.7578 154.071 34.7041 158.997 34.7041 165.378ZM61.8932 169.686V169.685C62.067 169.763 62.2463 169.831 62.4305 169.888L62.4382 169.891C62.4638 169.898 62.4895 169.906 62.5153 169.914C62.6078 169.94 62.7015 169.964 62.7962 169.985C63.0893 170.05 63.3311 170.282 63.3311 170.582C63.3311 170.621 63.3271 170.658 63.3194 170.695C63.327 170.659 63.331 170.621 63.331 170.582C63.331 170.282 63.0892 170.051 62.7961 169.986C62.4821 169.916 62.18 169.815 61.8932 169.686ZM61.8932 173.014C62.247 172.765 62.651 172.583 63.0866 172.486C63.8118 172.325 64.6706 171.678 64.6706 170.582C64.6706 169.486 63.8118 168.839 63.0866 168.678C62.651 168.581 62.247 168.399 61.8932 168.15V154.671H68.3174V156.641C69.3025 155.185 71.1869 154.071 74.0564 154.071C76.5832 154.071 78.4677 155.099 79.6669 156.898C80.866 155.185 82.8361 154.071 85.8769 154.071C87.901 154.071 89.6358 154.665 90.9772 155.735C90.5976 156.061 90.3132 156.543 90.3132 157.174C90.3132 158.271 91.172 158.917 91.8973 159.079C92.6041 159.236 93.2277 159.617 93.6888 160.144C93.9025 161.004 94.0142 161.938 94.0142 162.937V176.085H87.59V163.494C87.59 161.352 86.5622 159.982 84.5064 159.982C82.365 159.982 81.1658 161.481 81.1658 164.008V176.085H74.7416V163.494C74.7416 161.352 73.7138 159.982 71.658 159.982C69.5166 159.982 68.3174 161.481 68.3174 164.008V176.085H61.8932V173.014ZM91.6768 157.014C91.7205 156.872 91.8206 156.754 91.9499 156.674L91.9501 156.674C91.8208 156.754 91.7206 156.872 91.6768 157.014ZM99.2623 156.113V156.114C99.6438 156.323 100.058 156.481 100.494 156.578C100.766 156.638 100.994 156.842 101.025 157.111C100.994 156.842 100.766 156.638 100.494 156.577C100.399 156.556 100.306 156.533 100.213 156.506C100.187 156.498 100.162 156.491 100.136 156.483L100.128 156.481C99.8255 156.387 99.5356 156.263 99.2623 156.113ZM100.785 159.079C100.207 159.207 99.6854 159.485 99.2623 159.87V176.085H105.687V154.671H99.4939C99.8703 154.956 100.309 155.164 100.785 155.27C101.51 155.431 102.369 156.078 102.369 157.174C102.369 158.271 101.51 158.917 100.785 159.079ZM56.9746 168.521C56.4131 169.153 55.6832 169.632 54.8554 169.888L54.8477 169.891L54.8074 169.903L54.7706 169.914C54.6781 169.94 54.5845 169.964 54.4897 169.985C54.2343 170.042 54.0178 170.225 53.9664 170.47C54.018 170.225 54.2343 170.042 54.4896 169.986C55.4681 169.768 56.3316 169.245 56.9744 168.522L56.9746 168.521ZM101.029 157.174L101.029 157.175C101.029 157.174 101.029 157.174 101.029 157.174ZM50.9788 165.378C50.9788 168.419 48.8373 170.432 46.0535 170.432C43.2697 170.432 41.1283 168.419 41.1283 165.378C41.1283 162.337 43.2697 160.324 46.0535 160.324C48.8373 160.324 50.9788 162.337 50.9788 165.378ZM131.802 162.937C131.802 157.155 128.118 154.071 123.793 154.071C120.966 154.071 118.825 155.099 117.668 156.684V154.671H111.244V176.085H117.668V164.393C117.668 161.352 119.296 159.982 121.651 159.982C123.707 159.982 125.377 161.224 125.377 163.879V176.085H131.802V162.937ZM159.041 154.671H152.788V156.855C151.374 155.099 149.319 154.071 146.535 154.071C140.453 154.071 135.999 159.04 135.999 164.95C135.999 170.86 140.453 175.828 146.535 175.828C149.319 175.828 151.374 174.8 152.788 173.044V175.014C152.788 178.055 150.946 179.597 147.948 179.597C145.121 179.597 143.879 178.398 143.066 176.899L137.584 180.068C139.554 183.58 143.28 185.25 147.734 185.25C153.43 185.25 159.041 182.21 159.041 175.014V154.671ZM152.788 164.95C152.788 167.905 150.646 169.918 147.606 169.918C144.565 169.918 142.423 167.905 142.423 164.95C142.423 161.995 144.565 159.982 147.606 159.982C150.646 159.982 152.788 161.995 152.788 164.95Z" fill="#9BE5AD"/>
<g filter="url(#filter2_d_890_13671)">
<path fill-rule="evenodd" clip-rule="evenodd" d="M87.4869 16.4641C86.7013 12.9221 83.9056 10 80.2776 10V10V10C76.6495 10 73.8538 12.9221 73.0683 16.464C68.3206 37.8706 51.468 54.7232 30.0615 59.4708C26.5206 60.2562 23.5996 63.0511 23.5996 66.678V66.678V66.678C23.5996 70.3049 26.5206 73.0998 30.0615 73.8851C51.468 78.6328 68.3206 95.4853 73.0683 116.892C73.8538 120.434 76.6495 123.356 80.2776 123.356V123.356V123.356C83.9056 123.356 86.7013 120.434 87.4869 116.892C92.2346 95.4853 109.087 78.6328 130.494 73.8851C134.035 73.0998 136.956 70.3049 136.956 66.678V66.678V66.678C136.956 63.0511 134.035 60.2561 130.494 59.4708C109.087 54.7232 92.2346 37.8706 87.4869 16.4641Z" fill="#9BE5AD"/>
</g>
<path fill-rule="evenodd" clip-rule="evenodd" d="M62.0652 27.4967C60.9574 28.0874 59.8524 28.7007 58.7512 29.3364C47.5337 35.8128 38.1468 43.799 31.1011 52.334C34.3821 51.4369 37.5289 50.2131 40.5041 48.6998C45.0715 44.1962 50.3669 39.9264 56.3053 36.0812C58.5071 33.4365 60.441 30.561 62.0652 27.4967ZM95.8972 20.9052C95.3921 19.4874 94.9494 18.0401 94.5723 16.5667C115.019 13.6555 132.735 18.954 140.386 32.2046C144.993 40.185 145.277 49.8853 141.99 59.8894C141.07 58.3419 139.861 57.0219 138.492 55.9472C140.625 47.8311 139.951 40.4098 136.507 34.4439C131.579 25.9079 121.234 20.7952 107.35 20.3074C103.706 20.1794 99.867 20.3764 95.8972 20.9052ZM104.081 97.8605C110.442 93.7836 116.074 89.2195 120.876 84.399C123.776 82.9662 126.834 81.8067 130.018 80.9544C122.938 89.6339 113.438 97.7627 102.052 104.336C100.903 105 99.7505 105.638 98.5945 106.253C100.143 103.267 101.985 100.457 104.081 97.8605ZM22.3916 77.4243C20.1626 85.658 20.8095 93.1892 24.2964 99.2288C29.2247 107.765 39.5699 112.877 53.4533 113.365C57.1484 113.495 61.0431 113.291 65.0717 112.745C65.5672 114.164 66.0003 115.612 66.3679 117.086C45.8636 120.041 28.0851 114.748 20.4178 101.468C15.769 93.4161 15.5218 83.6131 18.9031 73.5138C19.8234 75.0483 21.0287 76.3577 22.3916 77.4243Z" fill="#9BE5AD"/>
<defs>
<filter id="filter0_b_890_13671" x="86.103" y="147.136" width="20.0923" height="20.0928" filterUnits="userSpaceOnUse" color-interpolation-filters="sRGB">
<feFlood flood-opacity="0" result="BackgroundImageFix"/>
<feGaussianBlur in="BackgroundImageFix" stdDeviation="2.67896"/>
<feComposite in2="SourceAlpha" operator="in" result="effect1_backgroundBlur_890_13671"/>
<feBlend mode="normal" in="SourceGraphic" in2="effect1_backgroundBlur_890_13671" result="shape"/>
</filter>
<filter id="filter1_b_890_13671" x="48.5976" y="160.533" width="20.0923" height="20.0928" filterUnits="userSpaceOnUse" color-interpolation-filters="sRGB">
<feFlood flood-opacity="0" result="BackgroundImageFix"/>
<feGaussianBlur in="BackgroundImageFix" stdDeviation="2.67896"/>
<feComposite in2="SourceAlpha" operator="in" result="effect1_backgroundBlur_890_13671"/>
<feBlend mode="normal" in="SourceGraphic" in2="effect1_backgroundBlur_890_13671" result="shape"/>
</filter>
<filter id="filter2_d_890_13671" x="13.5996" y="0" width="133.356" height="133.355" filterUnits="userSpaceOnUse" color-interpolation-filters="sRGB">
<feFlood flood-opacity="0" result="BackgroundImageFix"/>
<feColorMatrix in="SourceAlpha" type="matrix" values="0 0 0 0 0 0 0 0 0 0 0 0 0 0 0 0 0 0 127 0" result="hardAlpha"/>
<feOffset/>
<feGaussianBlur stdDeviation="5"/>
<feComposite in2="hardAlpha" operator="out"/>
<feColorMatrix type="matrix" values="0 0 0 0 0.607843 0 0 0 0 0.898039 0 0 0 0 0.678431 0 0 0 0.5 0"/>
<feBlend mode="normal" in2="BackgroundImageFix" result="effect1_dropShadow_890_13671"/>
<feBlend mode="normal" in="SourceGraphic" in2="effect1_dropShadow_890_13671" result="shape"/>
</filter>
</defs>
</svg>
