<svg width="25" height="24" viewBox="0 0 25 24" fill="none" xmlns="http://www.w3.org/2000/svg">
<path fill-rule="evenodd" clip-rule="evenodd" d="M14.0933 4.61333C13.4176 4.24311 12.5276 4.64176 12.4014 5.3641H12.3863V5.54036V7.5346V13.6668C11.7101 12.9768 10.7677 12.5487 9.72534 12.5487C7.66789 12.5487 6 14.2166 6 16.274C6 18.3315 7.66789 19.9994 9.72534 19.9994C11.7828 19.9994 13.4507 18.3315 13.4507 16.274L13.4507 16.2713V8.75847C14.0786 9.15252 14.884 9.59042 15.5794 9.75468C16.2137 9.90448 17.0571 10.0067 17.7179 10.0702C18.2898 10.1251 18.7726 9.66996 18.7726 9.09538V6.57498C18.7726 6.04474 18.3591 5.60606 17.8311 5.55725C17.1559 5.49482 16.2505 5.38956 15.5794 5.23106C15.1048 5.11895 14.579 4.87941 14.0933 4.61333Z" fill="#9BE5AD"/>
</svg>
